<?xml version="1.0" encoding="utf-8"?>
<!-- Generator: Adobe Illustrator 27.1.1, SVG Export Plug-In . SVG Version: 6.00 Build 0)  -->
<svg version="1.1" id="Layer_1" xmlns="http://www.w3.org/2000/svg" xmlns:xlink="http://www.w3.org/1999/xlink" x="0px" y="0px"
	 viewBox="0 0 510.99 402.74" style="enable-background:new 0 0 510.99 402.74;" xml:space="preserve">
<path d="M181.65,0c49.24,0,98.47,0,147.71,0c1.27,0.33,2.51,0.82,3.8,0.96c15.31,1.71,27.02,9.29,34.09,22.77
	c3.51,6.69,4.9,14.49,7.4,22.24c1.1,0,2.92,0,4.73,0c23.94,0,47.89-0.09,71.83,0.07c5.11,0.03,10.34,0.41,15.3,1.58
	c26.57,6.27,44.45,29.04,44.47,56.39c0.04,80.1,0.01,160.2,0.01,240.31c0,1-0.01,1.99-0.03,2.99
	c-0.48,27.17-23.63,52.24-50.63,54.72c-4.46,0.41-8.96,0.65-13.43,0.65c-128.7,0.03-257.39,0.01-386.09,0.05
	c-21.07,0.01-38.48-7.84-50.38-25.2C5.51,370.39,3.39,361.32,0,353.13c0-85.79,0-171.58,0-257.36c0.26-0.41,0.66-0.79,0.76-1.24
	c6.96-31.24,28.54-48.53,60.63-48.54c23.75-0.01,47.5-0.1,71.25,0.09c3.94,0.03,4.93-1.21,5.25-4.99
	c1.28-15.09,8.57-26.95,21.8-34.08C166.34,3.42,174.29,2.26,181.65,0z M255,376.69c64.53,0,129.05,0.02,193.58-0.05
	c4.29,0,8.73-0.1,12.84-1.16c15.6-4,24.24-16.63,24.24-35.05c0.03-77.79,0.03-155.58-0.03-233.37c0-3.79-0.18-7.71-1.12-11.35
	c-3.85-14.97-15.98-23.79-32.67-23.84c-30.1-0.08-60.2,0.01-90.3-0.05c-8.94-0.02-14.14-5.36-14.2-14.28
	c-0.02-3.49,0.02-6.98-0.01-10.47c-0.1-14.03-7.24-21.19-21.2-21.21c-27.94-0.02-55.88-0.01-83.82-0.01
	c-19.62,0-39.25-0.07-58.87,0.03c-11.39,0.06-18.6,7.23-18.99,18.62c-0.13,3.82-0.26,7.66-0.02,11.47
	c0.57,8.93-5.69,16.18-15.94,16.02c-29.1-0.44-58.2-0.21-87.31-0.09c-4.12,0.02-8.36,0.36-12.32,1.41
	c-14.29,3.81-22.98,15.91-22.99,31.68c-0.03,63.5-0.01,126.99-0.01,190.49c0,16.46-0.04,32.91,0.02,49.37
	c0.04,10.87,4.56,19.57,13.31,26c6.61,4.86,14.28,5.85,22.22,5.84C125.95,376.68,190.47,376.69,255,376.69z M255.48,104.81
	c65.78-0.02,119.58,53.72,119.65,119.52c0.08,65.63-53.82,119.5-119.64,119.59c-65.63,0.09-119.56-53.82-119.63-119.6
	C135.8,158.61,189.63,104.83,255.48,104.81z M348.51,225.22c0-52.14-41.26-93.59-93.12-93.57c-51.48,0.02-92.87,41.67-92.92,93.29
	c-0.05,52.07,41.44,92.72,93.18,92.92C307.34,318.07,348.51,276.5,348.51,225.22z M428.81,104.45
	c-13.14-0.26-24.34,10.65-24.35,23.73c-0.01,12.89,10.79,23.66,23.83,23.75c13.18,0.09,23.78-10.34,23.87-23.47
	C452.24,115.2,442.04,104.71,428.81,104.45z"/>
</svg>
