<?xml version="1.0" encoding="utf-8"?>
<!-- Generator: Adobe Illustrator 27.1.1, SVG Export Plug-In . SVG Version: 6.00 Build 0)  -->
<svg version="1.1" id="Layer_1" xmlns="http://www.w3.org/2000/svg" xmlns:xlink="http://www.w3.org/1999/xlink" x="0px" y="0px"
	 viewBox="0 0 511.14 511.08" style="enable-background:new 0 0 511.14 511.08;" xml:space="preserve">
<path d="M500.03,0c8.24,3.72,11.33,10.01,11.1,19.08c-0.47,18.12-0.11,36.26-0.15,54.4c-0.02,10.39-5.98,16.32-16.42,16.33
	c-18.96,0.03-37.93,0.03-56.89,0c-10.46-0.02-16.41-5.93-16.47-16.29c-0.02-4.31,0-8.62,0-13.28c-20.25,0-40.24,0-61.19,0
	c4.42,3.22,8.29,5.88,12,8.75c42.79,33.02,68.27,76.23,76.18,129.75c0.02,0.16,0.08,0.33,0.07,0.49c-0.5,9.49,3.81,14.85,12.31,19.8
	c18.14,10.57,24.56,36.15,15.5,54.98c-9.92,20.62-32.19,30.96-53.06,24.63c-18.72-5.67-31.17-20.84-32.62-39.74
	c-1.43-18.62,8.39-35.65,25.85-43.95c3.34-1.59,3.2-3.69,2.91-6.34c-3.26-29.34-13.42-56.11-30.77-79.95
	c-23.22-31.89-53.89-53.2-92.38-63.61c-9.03,15.34-22.03,24.66-40.32,24.7c-18.12,0.04-31.16-8.86-40.77-25.05
	c-8.1,2.95-16.7,5.39-24.71,9.1c-49.72,23.03-81.15,61.42-94.78,114.39c-1.73,6.72-2.38,13.72-3.59,20.58
	c-0.56,3.16,0.3,4.95,3.54,6.47c21.76,10.26,31.47,36.68,21.67,58.26c-10.21,22.5-36.07,33.2-58.44,23.44
	c-17.35-7.58-27.08-21.4-27.47-40.47c-0.39-19.05,8.73-33.05,25.79-41.48c3.37-1.66,4.57-3.61,4.92-7.02
	c6.36-61.51,35.04-109.87,85.67-145.28c0.9-0.63,1.77-1.31,3.42-2.54c-20.78,0-40.61,0-61.12,0c0,4.56,0.03,9.15-0.01,13.74
	c-0.08,9.78-6.1,15.89-15.83,15.92c-18.3,0.05-36.6-0.31-54.89,0.15C10.01,90.19,3.72,87.1,0,78.86c0-22.63,0-45.25,0-67.88
	C2.28,5.94,5.94,2.28,10.98,0C33.6,0,56.22,0,78.85,0c14.45,5.76,10.18,18.89,11.16,29.96c40.56,0,80.56,0.03,120.56-0.12
	c1.28,0,2.88-1.62,3.78-2.88c2.86-4.03,5.1-8.54,8.22-12.34c6.7-8.15,16.11-11.84,25.95-14.62c4.66,0,9.32,0,13.97,0
	c0.74,0.33,1.46,0.8,2.24,0.98c14.89,3.46,25.65,12.04,31.77,26.06c1.36,3.13,3.43,2.94,5.93,2.94
	c38.02-0.02,76.05-0.01,114.07-0.02c1.44,0,2.88-0.15,4.61-0.25c0.66-11.2-3.17-23.94,11.06-29.7C454.78,0,477.4,0,500.03,0z
	 M59.68,30.29c-10.1,0-19.8,0-29.35,0c0,10.06,0,19.76,0,29.36c9.98,0,19.56,0,29.35,0C59.68,49.8,59.68,40.22,59.68,30.29z
	 M451.5,30.11c0,10.23,0,19.93,0,29.53c9.98,0,19.55,0,29.27,0c0-9.96,0-19.66,0-29.53C470.89,30.11,461.31,30.11,451.5,30.11z
	 M255.53,29.99c-7.94-0.02-14.93,6.95-14.96,14.9c-0.02,7.94,6.95,14.94,14.89,14.96c7.94,0.02,14.93-6.95,14.96-14.9
	C270.45,37.01,263.48,30.01,255.53,29.99z M75.88,270.47c7.95-0.02,14.92-7.02,14.89-14.96c-0.02-7.95-7.02-14.92-14.96-14.9
	c-7.95,0.02-14.92,7.02-14.89,14.96C60.95,263.53,67.95,270.5,75.88,270.47z M450.08,255.67c0.09-7.92-6.83-14.96-14.8-15.06
	c-7.91-0.09-14.96,6.83-15.05,14.8c-0.09,7.92,6.83,14.96,14.8,15.06C442.94,270.57,449.98,263.64,450.08,255.67z M255.11,511.07
	c-29.1,0-58.2,0.01-87.3,0c-11.4-0.01-17.36-5.87-17.02-17.17c0.63-20.93,8.63-38.7,23.88-53.01c3.27-3.07,4.25-5.72,3.51-10.29
	c-6.44-39.59-23.78-73.6-51.29-102.62c-7.69-8.12-8.08-14.27-1.86-23.61c38.79-58.21,77.58-116.41,116.39-174.61
	c8.19-12.28,20.04-12.15,28.31,0.24c38.43,57.64,76.87,115.29,115.3,172.93c7.52,11.28,7.17,16.46-2.12,26.35
	c-27.42,29.17-44.13,63.53-50.45,103.04c-0.55,3.43,0.61,5.48,3.01,7.7c16.07,14.84,24.41,33.24,24.77,55.15
	c0.16,9.67-6.08,15.87-15.83,15.88C314.64,511.1,284.88,511.07,255.11,511.07z M356.13,313.86
	c-28.33-42.49-56.54-84.82-84.95-127.43c-0.43,0.84-0.68,1.11-0.68,1.37c-0.03,27.44,0.02,54.88-0.12,82.32
	c-0.01,2.87,1.58,3.55,3.6,4.48c24.18,11.13,33.41,39.15,20.67,62.58c-9.31,17.12-28.5,25.98-48.14,22.23
	c-18.61-3.55-33.1-19.36-35.59-38.81c-2.39-18.71,8.09-37.9,25.37-45.59c3.55-1.58,4.36-3.47,4.34-7.05
	c-0.15-25.44-0.08-50.89-0.08-76.33c0-1.56,0-3.12,0-5.94c-1.75,2.44-2.73,3.72-3.62,5.06c-26.44,39.67-52.83,79.38-79.41,118.96
	c-2.19,3.27-1.94,5.11,0.52,8c24.26,28.48,40.3,61.04,47.87,97.73c0.48,2.33,1.22,4.61,1.57,5.93c32.49-1.66,64.1-1.81,96.28,0.1
	c3.62-19.43,9.67-38.65,18.51-56.94C331.14,346.18,342.43,329.42,356.13,313.86z M327,480.97c-3.65-14.64-19.13-28.78-35.22-29.78
	c-20.36-1.26-40.83-0.8-61.25-0.96c-3.97-0.03-7.97,0.28-11.91,0.83c-15.67,2.19-31.5,15.94-34.55,29.91
	C231.71,480.97,279.33,480.97,327,480.97z M240.58,315.04c-0.29,7.85,6.52,15.04,14.52,15.33c7.85,0.29,15.03-6.52,15.33-14.52
	c0.29-7.85-6.52-15.04-14.52-15.33C248.05,300.22,240.87,307.03,240.58,315.04z"/>
</svg>
