<?xml version="1.0" encoding="utf-8"?>
<!-- Generator: Adobe Illustrator 27.2.0, SVG Export Plug-In . SVG Version: 6.00 Build 0)  -->
<svg version="1.1" id="Layer_1" xmlns="http://www.w3.org/2000/svg" xmlns:xlink="http://www.w3.org/1999/xlink" x="0px" y="0px"
	 viewBox="0 0 532.9 593.8" style="enable-background:new 0 0 532.9 593.8;" xml:space="preserve">
<g>
	<path d="M244.9,593.8c-9.1-1.1-18.3-2.3-27.4-3.5c-24.7-3.2-48.8-9.3-72.4-17.4c-6.3-2.2-9.2-6.7-7.6-11.6
		c1.7-5.4,6.7-7.5,13.3-5.3c24,8.2,48.4,14.1,73.6,17.3c32,4.1,64,3.6,95.8-1.6c44-7.2,85.4-21.8,124.1-44c1.8-1,3.6-2.1,5.4-3.2
		c-10.4-15.1-20.8-29.7-30.6-44.6c-37-56.5-68.2-116-96-177.4c-0.6-1.2-1.2-2.5-1.5-3.7c-1.5-5.1,0.6-9.6,5.3-11.3
		c5-1.8,8.8,0.2,11,4.7c4.3,8.8,8.2,17.9,12.5,26.7c30.1,63.2,63.5,124.4,104.4,181.4c5.2,7.3,3.3,7.4,11.5,2.7
		c14.7-8.4,29.1-17.3,44.3-26.4c-7.3-8-13.8-15-20.2-22.2c-54.9-61.7-101.3-129.5-142.8-200.7c-2.5-4.3-5.1-5.7-9.9-5.7
		c-47.7,0.2-95.5,0.2-143.2,0c-4.5,0-6.7,1.5-9,5.3c-38.7,66.6-81.9,130-132,188.6c-9.8,11.4-20,22.4-31,34.7
		c17,10.3,33.7,20.4,50.9,30.8c9-13.2,17.7-25.3,25.7-37.7c35.9-55.1,66.4-113.1,93.6-172.9c0.9-1.9,1.6-4,2.8-5.7
		c2.6-3.7,6.1-5.4,10.5-3.5c4.5,1.9,6.5,5.4,5.4,10.2c-0.5,2-1.4,4-2.3,5.9C175.6,377.2,137.5,448.4,90,514.3
		c-2.3,3.1-4.6,6.2-7.4,10.1c8.5,4.6,16.7,9.1,25,13.5c3.1,1.6,6.3,2.9,9.3,4.6c5,2.8,6.6,7.6,4.3,12.2c-2.3,4.4-7.2,6.1-12.5,3.5
		c-11.2-5.6-22.2-11.6-33.3-17.5c-2.9-1.5-5.6-3.4-8.3-5.2c-6.5-4.3-7.3-6.7-5.1-14.6c-6.9-3.9-14-7.6-20.8-11.9
		c-12-7.7-23.9-15.6-35.6-23.8c-7.1-5-7.3-10.1-1.2-16.3c66.6-68.4,120.2-146.4,168-228.6c1.4-2.3,1.8-5.4,2-8.2
		c3.2-44.4-6.7-87.1-18.1-129.5c-3.2-11.9-0.8-21.7,7.4-28.9c8.1-7.2,10.5-15.5,12.4-25.2c3.4-17,11.5-31.8,24.3-43.8
		c7.2-6.7,13-6,17.5,2.5c8.7,16.4,15.6,33.5,18,52.2c0.3,1.9,2.5,3.7,4.2,5.2c0.9,0.8,2.4,1.2,3.7,1.4c8.7,1.8,15.7,10.4,24.9,8.3
		c8.7-2,16.9-6.5,25.1-10.2c1.5-0.7,2.9-3,3.1-4.7c2.6-19.2,9.6-36.9,18.9-53.7c3.7-6.7,9.6-7.4,15.3-2.2
		c15.8,14.1,24.1,32.3,27.2,52.9c0.8,5,2.2,8.9,6.3,12.7c5.1,4.7,8.8,11.1,12.2,17.3c1.5,2.7,1.6,6.8,0.9,10
		c-1.9,9.4-4.4,18.7-6.8,28.1c-1.7,6.6-6.3,10.1-11.4,8.7c-5.4-1.5-7.5-6.1-5.9-13c1.8-7.7,4.1-15.3,5.4-23.1c0.5-3.1-0.1-7-1.7-9.6
		c-5-8.3-13.2-11.5-22.5-12c-21.6-1-40.9,6.6-59.6,16.1c-6.4,3.3-11.4,3.3-17.8,0c-18.7-9.6-38-17.1-59.6-16.1
		c-9.3,0.4-17.6,3.6-22.6,11.9c-1.6,2.6-2.3,6.6-1.7,9.6c5.5,27.8,11.5,55.5,17.2,83.2c0.5,2.6,0.7,5.3,1.1,8.4
		c49.5,0,98.9,0,148.6,0c1.4-8.9,2.7-17.8,4.2-26.6c1.4-8.9,5.2-12.9,11.1-11.9c6.3,1.1,8.5,5.9,6.4,15.3c-5,22.9-3.8,46.1-3.8,69.3
		c0,1.8,0.8,3.8,1.7,5.4c45.2,77.9,95.9,151.8,157.5,217.8c3.7,4,7.6,7.7,11.3,11.7c5.4,5.7,5.2,11.2-1.3,15.6
		c-15.4,10.3-31,20.2-46.6,30.2c-3.2,2.1-6.7,3.8-9.9,5.6c1.9,8.8,1.2,10.6-6.5,15.5c-43.3,27.4-90.3,44.8-140.8,52.9
		c-11.6,1.9-23.2,3.1-34.9,4.7C274.3,593.8,259.6,593.8,244.9,593.8z M192.8,229.5c49.4,0,98.2,0,147.1,0c0-7.8,0-15.1,0-22.6
		c-49.3,0-98,0-147.1,0C192.8,214.6,192.8,221.8,192.8,229.5z M218.4,57.7c-3.8-11.4-7.4-22.2-11.4-34.1
		c-8.3,11.1-12.8,21.8-14.4,34.1C201,57.7,208.8,57.7,218.4,57.7z M314.5,57.7c9.7,0,17.7,0,26,0c-1.9-12.5-6.3-23.3-14.5-34.1
		C321.9,35.6,318.2,46.4,314.5,57.7z"/>
</g>
</svg>
