<?xml version="1.0" encoding="utf-8"?>
<!-- Generator: Adobe Illustrator 27.1.1, SVG Export Plug-In . SVG Version: 6.00 Build 0)  -->
<svg version="1.1" id="Layer_1" xmlns="http://www.w3.org/2000/svg" xmlns:xlink="http://www.w3.org/1999/xlink" x="0px" y="0px"
	 viewBox="0 0 511.12 486.97" style="enable-background:new 0 0 511.12 486.97;" xml:space="preserve">
<path d="M0,298.39c2.82-7.71,8.69-11.6,16.35-13.79c9.24-2.64,18.29-5.9,27.45-8.83c10.46-3.34,19.86,0.94,23.06,10.42
	c3.2,9.48-1.78,18.58-12.22,22.09c-8.95,3.01-17.95,5.88-26.93,8.81c-14.5,4.72-19.88,2.83-27.7-9.72C0,304.38,0,301.38,0,298.39z
	 M95.81,0c-14.69,8.33-16.52,17.2-6.44,31.09c5.56,7.66,11.07,15.35,16.67,22.98c6.37,8.68,16.85,10.64,24.87,4.72
	c7.84-5.79,9.08-15.99,2.87-24.76c-5.28-7.45-10.39-15.06-16.19-22.09c-3.68-4.46-8.5-8-12.8-11.94C101.8,0,98.81,0,95.81,0z
	 M406.21,0c-3.13,2.34-6.93,4.15-9.26,7.12c-7.17,9.14-13.91,18.62-20.54,28.16c-5.47,7.87-3.71,18.04,3.67,23.5
	c7.61,5.63,18.04,4.28,23.95-3.52c7.12-9.39,14.1-18.9,20.75-28.63c6.09-8.89,2.91-19.98-6.66-24.94c-1-0.52-1.95-1.12-2.92-1.68
	C412.19,0,409.2,0,406.21,0z M414.74,137.76c-26.87-4.33-53.83-8.08-80.78-11.9c-3.45-0.49-5.56-1.62-7.16-4.91
	C315.42,97.5,304,74.07,292.17,50.86c-2.73-5.37-6.33-10.76-10.8-14.69c-19.63-17.27-49.69-11.03-61.61,12.63
	c-12.1,24.01-23.79,48.22-35.84,72.25c-0.95,1.9-3.21,4.12-5.13,4.42c-23.46,3.64-46.95,7-70.46,10.31
	c-10.39,1.46-20.79,2.58-29.43,9.49c-19.12,15.28-20.42,42.93-2.58,60.5c19.07,18.79,38.34,37.39,57.41,56.18
	c1.31,1.29,2.63,3.65,2.37,5.26c-3.77,23.25-7.83,46.46-11.78,69.69c-1.67,9.79-4.11,19.54-1.14,29.55
	c6.67,22.52,33.19,37.22,58.78,23.37c22.62-12.25,45.55-23.93,68.22-36.09c3.92-2.1,6.86-2.13,10.86,0.01
	c23.24,12.51,46.58,24.85,70.06,36.91c14.63,7.51,29.13,6.31,42.23-3.53c12.93-9.71,17.96-23.07,15.24-39.12
	c-4.43-26.17-8.81-52.36-13.48-78.49c-0.68-3.81,0.38-6.02,2.98-8.52c18.79-18.13,37.4-36.44,56.14-54.62
	c8.25-8,13.11-17.44,13.07-30.88C447.37,157.44,434.16,140.89,414.74,137.76z M165.58,244.97c-20.9-20.24-41.72-40.58-62.56-60.88
	c-0.95-0.93-1.96-1.8-2.85-2.79c-4.05-4.52-2.72-9.05,3.33-10.15c7.99-1.45,16.08-2.39,24.12-3.57c22.33-3.27,44.64-6.62,66.98-9.77
	c7.28-1.03,11.95-4.91,15.12-11.39c13.14-26.82,26.45-53.56,39.64-80.36c1.57-3.19,3.41-6.33,7.36-4.97
	c1.99,0.68,3.81,3.07,4.84,5.13c13.05,26.12,26.08,52.26,38.8,78.54c3.72,7.67,8.86,12.17,17.6,13.35
	c28.77,3.9,57.49,8.27,86.22,12.47c1.48,0.22,2.98,0.39,4.39,0.83c4.75,1.47,5.93,5.33,2.82,9.24c-0.92,1.16-2.07,2.16-3.14,3.2
	c-20.37,19.84-40.56,39.86-61.21,59.4c-7.25,6.85-9,14.14-7.23,23.72c5.24,28.38,9.91,56.87,14.54,85.35
	c0.39,2.38-0.37,6.21-1.99,7.32c-1.69,1.15-5.47,0.58-7.65-0.55c-25.65-13.26-51.29-26.54-76.64-40.35
	c-8.82-4.81-16.39-4.73-25.21,0.09c-25.05,13.69-50.47,26.69-75.75,39.97c-2.8,1.47-6.15,3.79-8.58,0.9
	c-1.66-1.97-2.21-5.76-1.77-8.49c4.59-28.16,9.5-56.26,14.3-84.39c0.45-2.62,0.83-5.25,1.17-7.38
	C172.1,253.29,169.6,248.86,165.58,244.97z M510.77,305.95c1.68-8.29-2.76-16.53-11.05-19.45c-10.94-3.85-22-7.37-33.05-10.87
	c-10.34-3.27-19.63,1.36-22.66,11.08c-2.91,9.37,2.19,18.25,12.38,21.58c9.92,3.24,19.83,6.53,29.77,9.71
	c2.5,0.8,5.13,1.22,7.7,1.82C502.17,319.48,509.17,313.85,510.77,305.95z M272.47,435.47c-0.16-9.77-7.47-17.18-16.87-17.23
	c-9.4-0.06-16.96,7.35-17.06,17.02c-0.12,11.61-0.13,23.23,0,34.84c0.11,9.76,7.5,16.93,17.1,16.88c9.36-0.05,16.6-7.16,16.81-16.67
	c0.13-5.8,0.02-11.61,0.02-17.42C272.49,447.08,272.57,441.27,272.47,435.47z"/>
</svg>
