<?xml version="1.0" encoding="utf-8"?>
<!-- Generator: Adobe Illustrator 27.0.0, SVG Export Plug-In . SVG Version: 6.00 Build 0)  -->
<svg version="1.1" id="Layer_1" xmlns="http://www.w3.org/2000/svg" xmlns:xlink="http://www.w3.org/1999/xlink" x="0px" y="0px"
	 viewBox="0 0 167.9 167.78" style="enable-background:new 0 0 167.9 167.78;" xml:space="preserve">
<path d="M23.93,47.79c-3.41,0-6.85,0.29-10.22-0.06C6.25,46.95,0.88,41.75,0.36,34.24c-0.47-6.78-0.47-13.65,0-20.43
	C0.87,6.29,6.22,0.9,13.71,0.36c6.87-0.49,13.82-0.49,20.69,0c7.48,0.53,12.85,5.97,13.35,13.44c0.45,6.78,0.48,13.65,0,20.43
	c-0.58,8.1-6.85,13.46-15.08,13.66c-2.91,0.07-5.82,0.01-8.74,0.01C23.93,47.87,23.93,47.83,23.93,47.79z M60.05,23.94
	c0,2.91-0.06,5.82,0.01,8.73c0.18,8.16,5.62,14.47,13.72,15.03c6.79,0.47,13.66,0.46,20.44-0.01c7.48-0.51,12.9-5.9,13.42-13.38
	c0.47-6.86,0.48-13.82-0.01-20.68c-0.53-7.45-6-12.81-13.49-13.3c-6.79-0.45-13.66-0.46-20.44,0.01
	c-7.51,0.52-12.66,5.87-13.46,13.37c-0.36,3.37-0.06,6.81-0.06,10.22C60.13,23.94,60.09,23.94,60.05,23.94z M143.71,47.91
	c2.91,0,5.83,0.06,8.74-0.01c8.23-0.2,14.51-5.55,15.1-13.64c0.49-6.78,0.46-13.65,0.01-20.43c-0.49-7.47-5.86-12.93-13.33-13.46
	c-6.87-0.49-13.82-0.49-20.69,0c-7.5,0.53-12.84,5.91-13.37,13.43c-0.48,6.78-0.47,13.65-0.01,20.43
	c0.51,7.51,5.88,12.72,13.34,13.51c3.37,0.36,6.81,0.06,10.22,0.06C143.71,47.83,143.71,47.87,143.71,47.91z M47.96,84.01
	c0-2.91,0.06-5.82-0.01-8.73c-0.21-8.21-5.57-14.48-13.68-15.06c-6.78-0.49-13.65-0.46-20.44,0c-7.51,0.51-12.9,5.82-13.45,13.34
	c-0.5,6.86-0.5,13.82,0,20.68c0.55,7.52,5.96,12.83,13.46,13.33c6.79,0.45,13.65,0.45,20.44,0c7.48-0.5,12.71-5.9,13.49-13.34
	c0.35-3.37,0.06-6.81,0.06-10.22C47.87,84.01,47.92,84.01,47.96,84.01z M83.85,107.78c2.91,0,5.83,0.06,8.74-0.01
	c8.22-0.21,14.49-5.58,15.06-13.68c0.48-6.78,0.46-13.65,0-20.43c-0.5-7.48-5.87-12.9-13.36-13.43c-6.87-0.48-13.82-0.49-20.69,0
	c-7.49,0.53-12.82,5.94-13.34,13.46c-0.46,6.78-0.47,13.65,0.01,20.43c0.53,7.51,5.9,12.69,13.37,13.47
	c3.37,0.35,6.81,0.06,10.22,0.06C83.85,107.7,83.85,107.74,83.85,107.78z M143.73,107.78c2.91,0,5.83,0.06,8.74-0.01
	c8.23-0.21,14.5-5.57,15.08-13.66c0.48-6.78,0.46-13.65,0-20.43c-0.5-7.47-5.87-12.91-13.35-13.44c-6.87-0.49-13.82-0.49-20.69,0
	c-7.49,0.53-12.83,5.93-13.35,13.44c-0.47,6.78-0.47,13.65,0,20.43c0.52,7.51,5.89,12.71,13.35,13.49
	c3.37,0.35,6.81,0.06,10.22,0.06C143.73,107.7,143.73,107.74,143.73,107.78z M47.96,143.86c0-2.91,0.06-5.81-0.01-8.72
	c-0.21-8.2-5.56-14.47-13.65-15.06c-6.77-0.49-13.63-0.46-20.41-0.01c-7.6,0.51-13.02,5.9-13.53,13.51
	c-0.46,6.77-0.47,13.63,0.01,20.4c0.53,7.5,5.88,12.9,13.33,13.43c6.86,0.48,13.8,0.48,20.66,0.01c7.47-0.51,12.66-5.91,13.43-13.36
	c0.35-3.37,0.06-6.8,0.06-10.2C47.88,143.86,47.92,143.86,47.96,143.86z M92.59,167.64c8.21-0.21,14.48-5.56,15.06-13.64
	c0.49-6.77,0.46-13.63,0.01-20.4c-0.5-7.57-5.94-13.01-13.53-13.52c-6.78-0.45-13.64-0.46-20.41,0.01
	c-7.5,0.51-12.89,5.82-13.44,13.33c-0.5,6.85-0.52,13.8,0,20.65c0.61,8.01,6.79,13.3,14.86,13.57c2.9,0.1,5.82,0.02,8.72,0.02
	C86.77,167.65,89.68,167.71,92.59,167.64z M167.76,143.76c0-2.91,0.07-5.81-0.01-8.72c-0.24-8.18-5.65-14.4-13.75-14.96
	c-6.69-0.47-13.47-0.44-20.17-0.02c-7.62,0.48-13.1,5.79-13.65,13.39c-0.5,6.85-0.5,13.8,0,20.65c0.56,7.6,6.06,12.9,13.66,13.37
	c6.7,0.41,13.47,0.43,20.17-0.02c7.57-0.5,12.84-5.94,13.58-13.49c0.33-3.37,0.06-6.8,0.06-10.2
	C167.69,143.76,167.72,143.76,167.76,143.76z"/>
</svg>
