<?xml version="1.0" encoding="utf-8"?>
<!-- Generator: Adobe Illustrator 27.1.1, SVG Export Plug-In . SVG Version: 6.00 Build 0)  -->
<svg version="1.1" id="Layer_1" xmlns="http://www.w3.org/2000/svg" xmlns:xlink="http://www.w3.org/1999/xlink" x="0px" y="0px"
	 viewBox="0 0 397.04 511.12" style="enable-background:new 0 0 397.04 511.12;" xml:space="preserve">
<path d="M214.48,0c4.6,2.16,7.29,5.78,9.24,10.49c10.5,25.46,21.45,50.74,31.76,76.28c2.29,5.68,3.24,12.11,3.69,18.27
	c0.61,8.39,0.15,16.87,0.15,25.8c2.44,0,4.39,0,6.34,0c38.07,0,76.14,0,114.21,0c12.3,0,17.14,4.87,17.15,17.21
	c0,5.66,0.07,11.31-0.02,16.97c-0.08,4.93-3.17,8.26-7.44,8.29c-4.29,0.02-7.38-3.27-7.46-8.23c-0.09-6.14-0.02-12.27-0.02-18.78
	c-8.71,0-17.08,0-26.15,0c0,3.04,0,5.97,0,8.9c0,10.81,0.05,21.63-0.02,32.44c-0.04,5.81-2.85,9.23-7.44,9.38
	c-4.82,0.15-7.83-3.28-7.88-9.42c-0.09-11.81-0.03-23.62-0.03-35.44c0-1.81,0-3.62,0-5.83c-4.46,0-8.51,0-13.36,0
	c0,1.66,0,3.4,0,5.14c0,12.14,0.02,24.29-0.01,36.43c-0.01,5.78-2.84,9.16-7.51,9.13c-4.66-0.03-7.39-3.38-7.4-9.23
	c-0.02-12.14-0.01-24.29-0.01-36.43c0-1.62,0-3.24,0-5.16c-4.55,0-8.61,0-13.12,0c-0.09,1.99-0.24,3.76-0.24,5.53
	c-0.02,12.14,0.1,24.29-0.07,36.43c-0.09,6.69-4.99,10.49-10.37,8.31c-3.96-1.6-4.96-5.01-4.95-8.95
	c0.03-11.81,0.01-23.62,0.01-35.44c0-1.81,0-3.63,0-5.82c-8.07,0-15.78,0-23.85,0c0,24.72,0,49.39,0,74.35c40.65,0,81.15,0,122.4,0
	c0-5.91-0.02-11.83,0-17.76c0.02-6.3,2.63-9.77,7.35-9.84c4.75-0.07,7.58,3.48,7.59,9.64c0.02,18.8,0.07,37.6-0.01,56.4
	c-0.1,23.81-17.41,42.45-41.12,44.43c-0.49,0.04-0.96,0.2-2.03,0.44c-0.1,1.8-0.29,3.71-0.29,5.63
	c-0.02,27.62,0.06,55.23-0.04,82.85c-0.07,18.22-9.91,31.14-26.43,35.16c-19.23,4.68-39.2-9.47-40.79-29.25
	c-0.64-7.94-0.4-15.95-0.42-23.94c-0.05-21.46-0.02-42.92-0.02-64.38c0-1.96,0-3.92,0-4.65c-9.35-3.28-17.81-6.25-26.55-9.32
	c0,4.98,0.03,10.72-0.01,16.45c-0.04,6.01-3.05,9.67-7.76,9.52c-4.59-0.14-7.24-3.5-7.24-9.45c-0.02-66.05-0.01-132.09-0.01-198.14
	c0-1.96,0-3.91,0-6.19c-8.69,0-16.9,0-25.41,0c0,88.13,0,176.05,0,264.33c8.31,0,16.53,0,25.46,0c0-7.92-0.13-15.68,0.05-23.43
	c0.1-4.33,3.28-7.29,7.27-7.34c3.89-0.05,7.14,2.99,7.61,7.15c0.06,0.49,0.04,1,0.04,1.5c-0.01,38.26,0.25,76.53-0.14,114.79
	c-0.24,23.73-21.07,44.7-44.38,45.8c-26.03,1.23-48.13-16.23-51.09-41.01c-1.08-9.03-0.66-18.25-0.9-27.38
	c-0.04-1.63-0.01-3.25-0.01-5.48c-6.02,0-11.62,0.03-17.22-0.01c-11.38-0.07-18.75-7.35-18.82-18.65
	c-0.05-9.32-0.11-18.63,0.04-27.95c0.05-2.94-0.96-4.42-3.71-5.56c-13.22-5.48-13.18-5.56-23.23,4.5
	c-4.35,4.35-8.62,8.79-13.07,13.03c-7.81,7.45-17.69,7.53-25.36,0.04c-9.05-8.82-17.98-17.77-26.8-26.82
	c-7.67-7.88-7.54-17.83,0.17-25.71c6.51-6.66,13.08-13.26,19.78-19.73c2.24-2.17,2.67-4.05,1.39-6.99
	c-5.62-12.93-5.53-12.97-19.73-12.97c-4.32,0-8.67-0.3-12.96,0.06C12.52,311.34,4.56,307.57,0,297.5c0-15.97,0-31.95,0-47.92
	c4.13-10.12,11.7-14.13,22.45-13.25c5.61,0.46,11.35-0.44,16.92,0.2c8.02,0.92,13.55-0.96,14.96-9.78c0.18-1.1,0.83-2.17,1.43-3.16
	c1.75-2.89,1.13-5.05-1.32-7.39c-6.72-6.43-13.3-13.02-19.76-19.72c-7.66-7.94-7.69-17.92-0.05-25.75
	c8.7-8.92,17.52-17.73,26.42-26.45c7.98-7.82,18.03-7.68,26.1,0.22c5.11,5,10.11,10.1,15.16,15.15c7.18,7.19,7.17,7.19,16.44,3.48
	c1.23-0.49,2.46-1.03,3.74-1.35c3.24-0.82,4.4-2.7,4.32-6.12c-0.23-8.97-0.1-17.95-0.07-26.93c0.03-12.11,6.98-19.07,19.17-19.2
	c5.44-0.06,10.88-0.01,15.2-0.01c2-8.29,2.93-16.1,5.76-23.15c10.14-25.22,21-50.15,31.38-75.27c1.98-4.8,4.5-8.77,9.23-11.1
	C209.82,0,212.15,0,214.48,0z M162.45,231.45c0-7.44,0-14.51,0-21.78c-1.81,0-3.31-0.16-4.75,0.03c-2.79,0.38-5.6,0.79-8.32,1.49
	c-22.97,5.91-38.38,20.14-46.44,42.43c-2,5.54-5.71,7.63-10.18,5.95c-4.24-1.6-5.86-5.55-4.06-10.69
	c9.58-27.26,28.24-44.85,56.21-52.19c5.7-1.5,11.68-1.95,17.54-2.89c0-23,0-45.87,0-69.12c-5.12,0-9.93,0.27-14.7-0.08
	c-4.56-0.33-6.22,1.2-6.07,5.88c0.3,9.14,0.09,18.3,0.08,27.45c-0.01,8.48-4.18,14.07-11.91,17.21c-3.53,1.44-7.06,2.88-10.56,4.39
	c-9.16,3.94-15.53,2.8-22.65-4.24c-6.27-6.2-12.56-12.37-18.64-18.75c-2.7-2.84-4.62-3.43-7.65-0.24
	c-7.67,8.07-15.6,15.92-23.61,23.66c-2.85,2.75-2.74,4.66,0.06,7.34c6.72,6.44,13.24,13.1,19.79,19.72
	c5.92,5.98,6.97,12.95,3.9,20.65c-1.6,4.01-3.27,7.98-4.94,11.96c-3.31,7.91-9.24,11.88-17.82,11.87c-9.14,0-18.29,0.18-27.43-0.08
	c-4.24-0.12-5.48,1.51-5.41,5.54c0.19,10.81,0.23,21.63-0.01,32.44c-0.1,4.34,1.39,5.96,5.73,5.86c9.31-0.2,18.62-0.08,27.93-0.03
	c8.23,0.05,13.77,4.12,16.92,11.61c1.35,3.21,2.55,6.48,3.96,9.67c4.64,10.52,3.55,16.69-4.48,24.74
	c-6.11,6.12-12.15,12.32-18.38,18.31c-2.66,2.56-2.6,4.45,0.03,7c7.99,7.77,15.9,15.61,23.61,23.66c2.98,3.11,5.01,2.67,7.75-0.2
	c6.44-6.72,13.05-13.29,19.72-19.79c5.83-5.67,12.64-6.91,20.18-3.77c3.37,1.4,6.7,2.89,10.1,4.22c10.28,4.03,13.75,8.98,13.8,19.94
	c0.03,8.82-0.14,17.64,0.14,26.45c0.05,1.68,1.73,4.63,2.84,4.72c5.88,0.47,11.81,0.22,17.72,0.22c0-23.59,0-46.47,0-69.36
	c-3.93-0.47-7.54-0.86-11.15-1.33c-30.92-4.07-59.18-30.95-64.82-61.7c-0.23-1.26-0.33-2.66-0.03-3.88c0.9-3.69,3.55-5.75,7.2-5.74
	c4.76,0.02,6.94,3.29,7.9,7.57c3.12,13.97,10.29,25.49,21.21,34.61c11.42,9.53,24.56,14.58,39.63,14.78c0-7.67,0-14.89,0-22.07
	c-27.26-2.34-39.89-23.48-40.12-40.92C122.02,251.98,135.95,236.93,162.45,231.45z M178.44,108.22c0,88.22,0,176.14,0,264.35
	c8.43,0,16.62,0,24.8,0c0-88.31,0-176.25,0-264.35C194.87,108.22,186.81,108.22,178.44,108.22z M259.35,236.61
	c0,10.97-0.03,21.57,0.05,32.17c0.01,1.1,0.51,2.27,1.03,3.27c5.24,10.08,13.48,16.22,24.86,16.41c22.92,0.39,45.84,0.26,68.76,0.06
	c12.57-0.11,24.82-9.7,26.79-22.01c1.56-9.71,1.17-19.73,1.66-29.9C341.04,236.61,300.56,236.61,259.35,236.61z M178.29,433.4
	c0,10.91-0.38,21.37,0.09,31.79c0.72,16.13,12.63,28.32,29.31,30.74c14.28,2.07,29.98-7.61,34.54-22.1
	c4.16-13.22,1.4-26.88,2.03-40.44C221.98,433.4,200.45,433.4,178.29,433.4z M301.47,303.98c-0.13,1.32-0.33,2.44-0.33,3.55
	c-0.01,29.09-0.02,58.17,0.02,87.26c0,1.64,0.2,3.33,0.65,4.9c2.55,8.91,11.18,14.69,20.08,13.57c9.32-1.17,16.34-8.81,16.37-18.35
	c0.1-29.25,0.05-58.5,0.04-87.76c0-0.96-0.18-1.93-0.31-3.17C325.78,303.98,313.76,303.98,301.47,303.98z M178.46,388.41
	c0,10.09,0,19.66,0,29.46c21.99,0,43.65,0,65.45,0c0-10,0-19.69,0-29.46C221.98,388.41,200.42,388.41,178.46,388.41z M241.69,92.64
	c-3.87-9.24-7.48-18.08-11.34-26.81c-0.43-0.97-2.26-1.86-3.45-1.88c-10.61-0.14-21.22-0.13-31.83-0.01
	c-1.07,0.01-2.72,0.79-3.1,1.66c-3.89,8.9-7.57,17.88-11.39,27.04C201.13,92.64,221.11,92.64,241.69,92.64z M162.39,299.33
	c0-17.49,0-34.65,0-51.8c-13.36,0.01-24.52,11.23-24.83,24.56C137.21,286.98,147.61,298.55,162.39,299.33z M199.03,48.67
	c8.34,0,15.9,0,24.19,0c-4.02-9.61-7.88-18.84-12.11-28.94C206.89,29.84,203.05,39.03,199.03,48.67z M300.34,87.94
	c-5.06,0.03-8.66-2.26-10.08-6.82c-3.43-11.01-10.32-18.18-21.48-21.48c-4.57-1.35-7.04-5.14-6.97-9.89
	c0.07-4.73,2.62-8.36,7.22-9.72c10.95-3.25,17.77-10.32,21.13-21.17c1.41-4.55,4.86-6.98,9.78-6.99c4.95-0.01,8.44,2.51,9.79,7.01
	c3.28,10.95,10.23,17.85,21.11,21.17c4.58,1.39,7.11,4.93,7.18,9.72c0.06,4.81-2.43,8.5-6.97,9.86
	c-11.13,3.33-18.09,10.41-21.44,21.5C308.3,85.49,304.85,87.79,300.34,87.94z M310.58,49.9c-3.06-3.08-7.92-7.98-10.48-10.55
	c-2.97,2.91-7.97,7.8-10.93,10.69c3.1,3,8.01,7.76,10.8,10.47C302.77,57.71,307.63,52.85,310.58,49.9z M349.91,81.91
	c-4.53,0.2-7.68,3.35-7.65,7.49c0.03,4.14,3.18,7.22,7.74,7.39c2.93,0.11,5.87,0.02,9.18,0.02c0,3.37-0.09,6.17,0.02,8.96
	c0.18,4.9,3.28,8.06,7.66,7.99c4.21-0.07,7.09-3.09,7.28-7.8c0.12-2.93,0.02-5.86,0.02-9.15c3.47,0,6.27,0.07,9.07-0.02
	c4.74-0.15,7.71-2.94,7.82-7.22c0.11-4.51-2.91-7.52-7.87-7.68c-2.91-0.09-5.82-0.02-9.02-0.02c0-3.59,0.1-6.4-0.02-9.2
	c-0.2-4.66-3.15-7.7-7.35-7.74c-4.19-0.04-7.34,3.01-7.57,7.57c-0.15,2.94-0.03,5.9-0.03,9.38
	C355.55,81.89,352.73,81.79,349.91,81.91z M26.25,70.3c0-7.15-0.02-14.29,0.01-21.44c0.02-5.97,2.47-10.38,7.83-13.4
	c12.57-7.08,25.05-14.33,37.48-21.66c5.25-3.1,10.2-3.11,15.45-0.03c12.44,7.3,24.94,14.51,37.49,21.62c5.3,3,7.87,7.41,7.87,13.41
	c0.01,14.46,0.01,28.92,0,43.38c0,6-2.55,10.44-7.83,13.45c-12.53,7.14-25.04,14.34-37.48,21.65c-5.44,3.2-10.48,2.99-15.89-0.23
	c-12.11-7.22-24.33-14.26-36.63-21.14c-5.88-3.29-8.45-8.07-8.34-14.66C26.34,84.26,26.25,77.28,26.25,70.3z M117.01,70.89
	c0-6.31,0.21-12.63-0.13-18.93c-0.09-1.74-1.4-4.08-2.87-4.96c-10.5-6.34-21.12-12.48-31.86-18.41c-1.46-0.81-4.14-0.76-5.62,0.05
	c-10.74,5.92-21.37,12.04-31.87,18.37c-1.46,0.88-2.85,3.24-2.88,4.94c-0.24,12.45-0.23,24.91-0.01,37.37
	c0.03,1.57,1.29,3.76,2.64,4.57c10.65,6.41,21.41,12.64,32.27,18.68c1.38,0.77,3.92,0.8,5.3,0.03
	c10.87-6.04,21.63-12.26,32.28-18.67c1.35-0.81,2.55-2.99,2.63-4.6C117.19,83.19,117,77.03,117.01,70.89z M327.15,384.2
	c0-2.98,0.23-5.98-0.05-8.93c-0.4-4.2-2.99-6.53-7.17-6.8c-3.97-0.26-7.43,2.76-7.59,6.87c-0.22,5.95-0.2,11.92-0.01,17.87
	c0.13,4.18,3.42,7.08,7.43,7.07c3.99-0.02,7.13-2.94,7.38-7.14c0.17-2.97,0.03-5.96,0.03-8.94
	C327.17,384.2,327.16,384.2,327.15,384.2z M79.18,42.66c15.4-0.09,27.91,12.17,28.16,27.6c0.25,15.24-12.84,28.44-28.11,28.35
	c-15.16-0.09-27.85-12.84-27.89-28.05C51.3,55.24,63.75,42.76,79.18,42.66z M91.95,70.92c0.16-7.17-5.1-12.86-12.1-13.09
	c-7.31-0.25-13.11,5.27-13.17,12.54c-0.06,7.2,5.23,12.68,12.37,12.79C86.26,83.28,91.79,78.03,91.95,70.92z"/>
</svg>
