<?xml version="1.0" encoding="utf-8"?>
<!-- Generator: Adobe Illustrator 27.1.1, SVG Export Plug-In . SVG Version: 6.00 Build 0)  -->
<svg version="1.1" id="Layer_1" xmlns="http://www.w3.org/2000/svg" xmlns:xlink="http://www.w3.org/1999/xlink" x="0px" y="0px"
	 viewBox="0 0 507.19 511.21" style="enable-background:new 0 0 507.19 511.21;" xml:space="preserve">
<path d="M258.73,0c5.07,1.9,10.46,3.21,15.15,5.79c19.06,10.49,24.09,34.32,11.28,52.97c-5.75,8.38-11.47,16.65-13.87,26.78
	c-2.12,8.92-2.14,17.65,1.21,26.95c2.09-1.16,3.93-2.13,5.72-3.2c41.94-25.09,85.09-47.8,130.67-65.62
	c17.94-7.01,36.14-13.44,55.29-16.06c8.08-1.11,16.71-1.33,24.64,0.27c14.16,2.87,19.63,14.53,14.57,28.13
	c-4.52,12.15-12.9,21.65-21.76,30.67c-21.52,21.92-45.94,40.33-71.09,57.81c-2.16,1.5-4.3,3.05-7.26,5.15
	c2.91,0.8,5.01,1.47,7.16,1.94c49.07,10.9,85.4,49.23,93.82,98.51c9.66,56.55-5.03,107.58-36.58,153.91
	c-39.45,57.95-95.13,91.37-164,103.03c-54.21,9.18-106.76,3.57-156.43-20.53C74.35,451.14,25.92,394.21,7.78,315.18
	c-23.74-103.42,7.18-190.19,88.06-258.69c31.19-26.41,67.35-43.52,107.54-51.6c8.76-1.76,17.71-2.62,26.56-3.93
	c1.63-0.24,3.23-0.64,4.84-0.96C242.76,0,250.75,0,258.73,0z M112.65,294.46c-0.03-0.74-0.06-1.48-0.1-2.22
	c-11.13,0-22.28,0.29-33.4-0.09c-9.34-0.32-13.84-7.41-9.95-15.37c10.29-21.05,21.35-41.65,35.19-60.68
	c14.1-19.39,32.17-28.11,56.21-22.27c1.38,0.34,3.59-0.35,4.64-1.36c26.27-25.2,55.71-46.29,86.05-66.18
	c3.26-2.13,3.42-3.97,2.22-7.22c-4.36-11.85-4.6-23.94-2.09-36.28c2.69-13.2,9.55-24.21,16.85-35.19c8.16-12.27,2.46-25.5-12.1-26.6
	c-11.81-0.9-23.95-0.33-35.7,1.31c-42.82,5.96-80.61,23.62-113.94,51C74,100.03,50.09,133.07,35,172.36
	c-15.58,40.57-18.61,82.41-10.77,124.96c10.81,58.62,39.74,106.79,86.73,143.33c56.54,43.97,120.96,58.94,191.08,46.04
	c74.87-13.77,131.15-54.16,165.47-122.88c16.45-32.93,23.22-67.89,17.88-104.84c-6.79-46.95-38.86-80.66-85.48-89.14
	c-21.65-3.94-21.57-3.8-40.58,7.43c-50.97,30.11-103.24,57.47-160.3,74.53c-1.72,0.52-3.51,2.79-4.16,4.63
	c-6.63,18.8-18.95,31.14-39.16,33.85C141.43,292.19,127.01,293.1,112.65,294.46z M288.62,193.63c12.22-6.6,23.7-12.55,34.95-18.91
	c46.05-26.02,90.7-54.15,130.29-89.52c9.24-8.26,17.32-17.85,25.55-27.16c2.56-2.89,3.87-6.89,6.35-11.5
	c-4.71,0-7.85-0.19-10.95,0.03c-17.39,1.27-33.77,6.71-49.96,12.65c-41.38,15.17-80.53,35.08-118.69,56.97
	c-15.39,8.83-30.35,18.38-46,27.9C272.8,158.88,282.04,175.06,288.62,193.63z M181.55,203.38c5.72,10.16,10.62,18.87,15.7,27.88
	c24.61-7.26,48.95-17.51,72.96-28.95c-5.86-17.76-14.56-33.15-27.39-47.26C221.93,171.53,201.33,187.77,181.55,203.38z
	 M93.78,272.55c20.69,1.45,40.44,1.19,60.02-2.14c12.75-2.17,21.35-12.57,22.99-26.62c1.27-10.81-6.29-23.71-16.62-28.4
	c-12.54-5.69-26.22-3.9-33.99,6.31c-9.22,12.11-17.1,25.25-25.39,38.05C98.25,263.69,96.27,267.97,93.78,272.55z M465.28,310.12
	c-0.54,22.1-17.28,39.58-40.12,39.78c-22.03,0.19-39.74-18.16-39.67-40.11c0.06-21.95,18.23-40.01,40.01-39.79
	C447.44,270.22,465.39,288.32,465.28,310.12z M425.53,290.27c-11.17-0.06-20.11,8.7-20.09,19.71c0.02,10.77,8.81,19.55,19.68,19.65
	c11.1,0.1,20.21-8.82,20.15-19.73C445.21,299.12,436.38,290.33,425.53,290.27z M165.87,369.74c0.06,21.73-18.07,40-39.85,40.16
	c-21.67,0.15-39.89-18.07-39.94-39.95c-0.05-21.99,17.67-39.86,39.74-40.07C147.47,329.68,165.8,347.92,165.87,369.74z
	 M125.96,350.15c-11.13-0.01-20.06,8.9-19.93,19.87c0.13,10.8,8.95,19.46,19.84,19.49c11.09,0.03,20.18-9.03,19.97-19.9
	C145.63,358.75,136.86,350.16,125.96,350.15z M305.64,409.69c0.02-21.97,18.02-39.96,39.91-39.89
	c21.83,0.07,39.93,18.24,39.88,40.03c-0.05,21.74-18.46,40.13-40.02,39.98C323.51,449.66,305.62,431.61,305.64,409.69z
	 M345.38,429.43c11.09,0.05,20.19-8.96,20.03-19.84c-0.16-10.84-8.95-19.49-19.83-19.52c-11.14-0.03-20.08,8.84-19.98,19.82
	C325.69,420.69,334.5,429.38,345.38,429.43z M265.67,429.77c-0.04,21.73-18.42,40.12-40,40.01c-21.87-0.11-39.81-18.19-39.8-40.1
	c0.01-21.97,17.97-39.94,39.89-39.91C247.57,389.79,265.7,407.97,265.67,429.77z M225.9,410.04c-11.16-0.06-20.11,8.74-20.07,19.73
	c0.04,10.78,8.83,19.54,19.7,19.63c11.1,0.09,20.2-8.85,20.12-19.76C245.58,418.85,236.75,410.09,225.9,410.04z M176.07,61.82
	c22.02,0.12,39.94,18.27,39.7,40.21c-0.24,21.66-18.32,39.6-39.93,39.61c-22.14,0.01-40.08-18.28-39.85-40.6
	C136.22,79.21,154.11,61.7,176.07,61.82z M175.96,81.8c-10.92-0.07-20.08,9.05-20.04,19.93c0.05,10.61,9.05,19.64,19.73,19.79
	c10.73,0.15,20.18-9.27,20.08-20C195.64,90.87,186.61,81.87,175.96,81.8z M259.93,351.52c-28.18-0.42-51.07-8.01-69.53-26.67
	c-6.06-6.13-5.49-13.54,1.08-17.14c4.21-2.31,8.39-1.7,12.62,2.54c10.42,10.46,22.95,17.07,37.37,19.4
	c28,4.53,53.55-0.33,74.08-21.64c5.55-5.76,8.5-12.94,10.15-20.73c1-4.73,3.53-8.24,8.79-8.8c6.72-0.72,11.7,3.85,10.98,10.8
	c-1.12,10.81-5.49,20.46-12.21,28.94c-15.06,19.01-35.58,28.18-58.89,31.99C268.82,351.11,263.14,351.24,259.93,351.52z
	 M345.47,235.49c0.03,5.27-4.38,9.82-9.67,9.98c-5.57,0.16-10.16-4.28-10.19-9.87c-0.03-5.4,4.22-9.82,9.58-9.98
	C340.71,225.45,345.44,229.99,345.47,235.49z"/>
</svg>
