<?xml version="1.0" encoding="utf-8"?>
<!-- Generator: Adobe Illustrator 27.1.1, SVG Export Plug-In . SVG Version: 6.00 Build 0)  -->
<svg version="1.1" id="Layer_1" xmlns="http://www.w3.org/2000/svg" xmlns:xlink="http://www.w3.org/1999/xlink" x="0px" y="0px"
	 viewBox="0 0 391.08 510.66" style="enable-background:new 0 0 391.08 510.66;" xml:space="preserve">
<path d="M90.77,0c69.82,0,139.64,0,209.47,0c0,9.9,0,19.8,0,29.92c-2.76,0-4.74,0-6.72,0c-11.2,0-14.72,2.01-18.29,12.82
	c-2.26,6.86-3.76,14.15-4.38,21.35c-3.08,35.62,6.36,66.48,35.34,89.49c11.97,9.5,24.19,18.7,36.07,28.31
	c19.91,16.11,35.99,35.28,42.65,60.5c14.09,53.32,3.86,102.25-28.34,146.76c-14.7,20.33-33.14,37.18-50.83,54.75
	c-8.94,8.88-17.53,18.18-25.66,27.82c-7.05,8.36-10.62,18.3-9.83,29.52c0.22,3.1,0.03,6.22,0.03,9.43c-50.13,0-99.71,0-149.63,0
	c0-2.3-0.16-4.28,0.02-6.24c1.37-14.74-4.24-26.94-13.65-37.76c-2.73-3.13-5.39-6.34-8.32-9.28
	c-14.68-14.71-29.72-29.07-44.09-44.06c-23.8-24.83-42.21-52.95-49.99-87.02c-1.95-8.54-3.1-17.25-4.62-25.89
	c0-9.98,0-19.96,0-29.94c0.3-0.93,0.79-1.84,0.88-2.79c2.95-33.54,17.91-60.78,43.59-82.16c11.61-9.67,23.76-18.69,35.61-28.07
	c15.06-11.92,27.94-25.63,34.45-44.18c6.4-18.24,7.52-37.09,4.73-56.05c-1.02-6.92-3.66-13.72-6.39-20.23
	c-2.13-5.08-6.5-7.75-12.47-7.13c-3.07,0.32-6.2,0.06-9.63,0.06C90.77,19.55,90.77,9.78,90.77,0z M360.29,280.02
	c0.33-28.63-10.55-52.28-33.45-71.64c-11.92-10.08-24.46-19.43-36.8-29c-39.98-31.03-53.99-72.53-48.73-121.61
	c1-9.29,3.48-18.43,5.28-27.65c-33.97,0-68.34,0-102.67,0c-0.1,0.52-0.3,0.89-0.21,1.15c7.27,20.15,8.02,40.91,5.9,61.95
	c-2.47,24.45-11.02,46.32-27.03,65.18c-11.4,13.43-25.3,23.96-39.21,34.51c-12.58,9.55-25.25,19-35.01,31.68
	c-12.49,16.21-17.5,34.81-18.13,56.57c15.83-15.92,30.64-30.82,46-46.27c19.97,20.11,39.61,39.89,59.86,60.27
	c19.92-19.95,39.69-39.76,60.09-60.2c19.84,19.98,39.48,39.75,59.83,60.24c19.82-19.91,39.56-39.75,59.68-59.97
	C330.51,250.1,345.14,264.8,360.29,280.02z M57.76,371.86c11,11.8,22.02,23.98,33.44,35.78c10.17,10.51,20.98,20.39,31.12,30.91
	c11.81,12.26,21.83,25.79,26.5,42.35c31.4,0,62.28,0,93.3,0c4.84-17.27,15.25-30.95,27.43-43.39c15.46-15.79,31.35-31.16,46.76-47
	c5.96-6.13,11.1-13.05,16.24-19.16c-6.31-6.34-12.01-12.06-18.33-18.41c-19.5,19.58-39.25,39.41-59.55,59.79
	c-19.9-19.93-39.6-39.65-59.9-59.97c-19.7,19.79-39.45,39.62-59.74,59.98c-19.92-19.96-39.6-39.69-59.05-59.18
	C70.27,359.29,64.57,365.02,57.76,371.86z M348.95,343.84c2.53-7.4,4.67-13.84,6.93-20.23c1-2.83,0.36-4.82-1.84-6.98
	c-12.1-11.87-24.02-23.93-36.02-35.91c-0.9-0.9-1.94-1.67-3.39-2.9c-19.85,19.94-39.51,39.69-59.78,60.06
	c-19.92-19.97-39.69-39.79-59.91-60.06c-19.85,19.94-39.52,39.69-59.79,60.04c-19.91-19.96-39.68-39.77-59.7-59.83
	c-13.44,13.48-26.71,26.74-39.86,40.13c-0.79,0.81-1.15,2.72-0.81,3.85c2.13,7.11,4.51,14.15,7.19,22.36
	c11.82-11.88,22.79-22.9,34.62-34.8c19.93,20.04,39.66,39.88,60.02,60.36c19.7-19.76,39.38-39.48,59.91-60.07
	c19.68,19.76,39.43,39.58,59.81,60.04c19.66-19.73,39.32-39.47,59.3-59.53C326.47,321.24,337.34,332.16,348.95,343.84z M150.23,212
	c-10.04,0-19.72,0-29.3,0c0,9.95,0,19.51,0,29.29c9.83,0,19.38,0,29.3,0C150.23,231.21,150.23,221.54,150.23,212z M269.86,211.94
	c-9.87,0-19.54,0-29.12,0c0,10.02,0,19.69,0,29.46c9.83,0,19.27,0,29.12,0C269.86,231.57,269.86,221.78,269.86,211.94z"/>
</svg>
