<?xml version="1.0" encoding="utf-8"?>
<!-- Generator: Adobe Illustrator 27.1.1, SVG Export Plug-In . SVG Version: 6.00 Build 0)  -->
<svg version="1.1" id="Layer_1" xmlns="http://www.w3.org/2000/svg" xmlns:xlink="http://www.w3.org/1999/xlink" x="0px" y="0px"
	 viewBox="0 0 511.26 468.93" style="enable-background:new 0 0 511.26 468.93;" xml:space="preserve">
<path d="M59.88,0c130.41,0,260.82,0,391.24,0c21.63,3.64,36.17,16.75,45.77,35.53c16.86,33,18.15,67.49,7.69,102.58
	c-5.03,16.85-13.92,31.53-27.55,42.63c5.04,5.84,10.38,11.11,14.65,17.14c11.61,16.41,16.94,35.19,18.67,54.96
	c2.47,28.27-1.47,55.45-16.81,79.93c-12.07,19.27-28.72,30.28-52.73,29.64c-31.41-0.83-62.85-0.2-94.28-0.2c-1.76,0-3.53,0-5.48,0
	c-0.11,1.74-0.37,2.9-0.24,4.02c0.91,7.93-2.34,13.69-8.01,19.25c-26,25.5-51.67,51.32-77.32,77.18c-4.28,4.32-8.92,6.29-15.01,6.27
	c-48.56-0.13-97.11-0.05-145.67-0.11c-5.47-0.01-10.96-0.32-16.4-0.86c-17.64-1.75-34.77-19.31-35.32-37.12
	c-0.65-21.26-0.7-42.55-0.46-63.82c0.08-6.8-0.5-12.34-7.6-15.22c-1.32-0.53-2.34-1.82-3.46-2.82C17.02,336,8.95,319.29,4.28,300.78
	C2.42,293.43,1.4,285.87,0,278.41c0-8.32,0-16.63,0-24.95c0.36-1.59,0.85-3.16,1.06-4.77c2.91-21.75,9.62-41.93,24.41-58.72
	c2.7-3.07,5.8-5.79,8.92-8.88c-17.38-14.34-26.25-33.26-31.12-54.4c-1.29-5.6-2.18-11.29-3.26-16.94c0-8.98,0-17.96,0-26.94
	c0.69-3.88,1.4-7.75,2.07-11.63c2.67-15.37,7.69-29.87,16.29-42.97C28.28,13.11,41.7,3.02,59.88,0z M234.1,447.19
	c0-13.66-0.09-26.6,0.02-39.54c0.24-27.71,18.07-45.38,45.69-45.41c6.98-0.01,13.97,0,20.95,0c6.09,0,12.18,0,18.63,0
	c0-2.9,0.01-5.2,0-7.5c-0.08-28.91-0.27-57.82,3.98-86.54c3.81-25.75,9.63-50.82,23.05-73.54c0.37-0.62,0.53-1.36,0.92-2.41
	c-1.84-0.09-3.13-0.22-4.43-0.22c-79.31-0.01-158.61,0.01-237.92-0.08c-3.24,0-5.14,1.11-6.9,3.69
	c-8.4,12.29-14.54,25.65-19.46,39.63C67.58,266.67,64,299.21,63.88,332.26c-0.11,29.92,0.3,59.85-0.16,89.76
	c-0.23,14.52,8.51,25.54,25.04,25.35c46.38-0.52,92.77-0.18,139.16-0.18C229.72,447.19,231.54,447.19,234.1,447.19z M405.29,21.99
	c-1.05-0.05-2.48-0.17-3.9-0.17c-111.74-0.01-223.48-0.01-335.22,0.03c-2.79,0-5.67,0.18-8.35,0.89
	c-12.13,3.19-19.39,12.25-24.42,22.68c-16.22,33.58-16.32,67.63-0.12,101.21c7.58,15.72,19.54,24.4,38.64,24.3
	c109.41-0.55,218.82-0.27,328.24-0.27c1.91,0,3.82,0,5.43,0C375.34,120.85,375.39,71.62,405.29,21.99z M404.75,99.12
	c0.13,20.84,6.11,40.87,17.89,57.17c13,17.99,32.65,18.99,47.11,2.21c3.12-3.62,6.03-7.63,8.05-11.93
	c15.9-33.71,15.83-67.54-0.15-101.22c-1.83-3.85-4.46-7.41-7.15-10.76c-14.11-17.6-34.72-16.81-48.09,1.64
	C409.42,54.18,405.07,74.64,404.75,99.12z M404.79,266.55c0.35,21.91,4.82,42.48,18.15,60.45c12.81,17.27,32.48,18.36,46.51,2.16
	c3.44-3.97,6.28-8.57,8.75-13.23c7.95-14.96,11.09-31.15,11.18-47.96c0.12-22.02-4.25-42.77-17.33-61.12
	c-13.89-19.49-36.01-19.43-49.93,0.11C409.37,224.87,405.08,245.15,404.79,266.55z M405.28,340.51
	c-29.9-49.51-29.93-98.73,0.19-148.48c-7.88,0-15.84,0.28-23.76-0.11c-4.69-0.23-7.76,1.46-10.58,5.01
	c-10.66,13.43-16.58,29.02-20.85,45.32c-8.28,31.61-9.55,63.95-9.42,96.4c0,0.61,0.35,1.21,0.55,1.85
	C362.95,340.51,384.31,340.51,405.28,340.51z M74.39,192.48c-10.42-1.17-20.15-0.96-27.57,6.34c-5.35,5.26-10.55,11.29-13.81,17.96
	c-14.98,30.56-15.28,61.97-2.95,93.45c2.64,6.73,7.07,12.75,10.68,19.1c0.63-0.19,1.26-0.38,1.89-0.58
	C43.07,281.1,50.49,235.09,74.39,192.48z M255.61,429.92c15.3-15.29,30.82-30.81,46.15-46.13c-0.04,0-0.83-0.15-1.61-0.15
	c-8.14,0.05-16.3-0.24-24.41,0.27c-11.4,0.72-19.25,8.29-20,19.66C255.13,412.64,255.61,421.77,255.61,429.92z M469.79,95.48
	c-2.29-7.16-3.6-14.83-7.07-21.36c-6.65-12.53-21.28-13.26-29.92-2.24c-9.51,12.13-9.23,37.19,0.55,49.16
	c7.54,9.23,19.96,9.31,27.46,0.08c5.96-7.33,7.49-16.07,7.58-25.2C468.86,95.77,469.33,95.63,469.79,95.48z M462.87,244.71
	c-7.27-13.7-23.99-13.8-31.49-0.25c-7.92,14.31-7.97,29.38-0.1,43.75c7.57,13.82,24.37,13.71,31.71-0.29
	c3.36-6.4,4.56-13.94,6.9-21.49C467.56,258.95,466.33,251.24,462.87,244.71z"/>
</svg>
