<?xml version="1.0" encoding="utf-8"?>
<!-- Generator: Adobe Illustrator 27.2.0, SVG Export Plug-In . SVG Version: 6.00 Build 0)  -->
<svg version="1.1" id="Layer_1" xmlns="http://www.w3.org/2000/svg" xmlns:xlink="http://www.w3.org/1999/xlink" x="0px" y="0px"
	 viewBox="0 0 391.8 36.5" style="enable-background:new 0 0 391.8 36.5;" xml:space="preserve">
<g>
	<path d="M3.9,36c-1.2,0-2.2-0.3-2.9-1c-0.7-0.7-1-1.6-1-2.9V6.1c0-1.2,0.3-2.2,1-2.9s1.6-1,2.9-1h9.4c5.8,0,10.3,1.5,13.4,4.4
		c3.2,2.9,4.7,7.1,4.7,12.5c0,2.7-0.4,5.1-1.2,7.2c-0.8,2.1-2,3.9-3.5,5.3c-1.5,1.4-3.4,2.5-5.7,3.3c-2.2,0.8-4.8,1.1-7.7,1.1H3.9z
		 M7.4,29.9h5.4c1.8,0,3.4-0.2,4.8-0.7c1.3-0.4,2.5-1.1,3.4-2c0.9-0.9,1.6-2,2-3.4c0.4-1.4,0.7-3,0.7-4.8c0-3.6-0.9-6.4-2.7-8.1
		c-1.8-1.8-4.5-2.7-8.1-2.7H7.4V29.9z"/>
	<path d="M40.4,36c-1.2,0-2.2-0.3-2.9-1c-0.7-0.7-1-1.6-1-2.9V6.1c0-1.2,0.3-2.2,1-2.9s1.6-1,2.9-1h16.8c1,0,1.7,0.2,2.2,0.7
		C59.8,3.4,60,4.1,60,5.1c0,1-0.2,1.7-0.7,2.2C58.8,7.8,58.1,8,57.1,8H43.6v7.9H56c1,0,1.7,0.2,2.2,0.7c0.5,0.5,0.7,1.2,0.7,2.2
		s-0.2,1.7-0.7,2.2c-0.5,0.5-1.2,0.7-2.2,0.7H43.6v8.4h13.5c1,0,1.7,0.2,2.2,0.7c0.5,0.5,0.7,1.2,0.7,2.1c0,1-0.2,1.7-0.7,2.2
		c-0.5,0.5-1.2,0.7-2.2,0.7H40.4z"/>
	<path d="M68.7,36c-1.2,0-2.2-0.3-2.8-1c-0.7-0.7-1-1.6-1-2.8V5.9c0-1.2,0.3-2.2,1-2.8c0.6-0.6,1.6-1,2.8-1c1.2,0,2.1,0.3,2.7,1
		c0.6,0.6,1,1.6,1,2.8v23.9h12.9c1,0,1.8,0.3,2.4,0.8c0.6,0.5,0.8,1.3,0.8,2.3c0,1-0.3,1.8-0.8,2.4C87,35.8,86.2,36,85.2,36H68.7z"
		/>
	<path d="M93.9,36.5c-0.9,0-1.6-0.2-2.2-0.6c-0.6-0.4-0.9-1-1.1-1.7c-0.1-0.7,0-1.5,0.4-2.4l12.3-26.9c0.5-1.1,1.1-1.9,1.8-2.4
		c0.7-0.5,1.5-0.7,2.4-0.7c0.9,0,1.7,0.2,2.4,0.7c0.7,0.5,1.3,1.3,1.8,2.4l12.4,26.9c0.4,0.9,0.6,1.7,0.5,2.4
		c-0.1,0.7-0.4,1.3-1,1.7c-0.5,0.4-1.2,0.6-2.1,0.6c-1.1,0-1.9-0.3-2.5-0.8c-0.6-0.5-1.1-1.3-1.6-2.4l-2.9-6.7l3,2.1h-20l3-2.1
		l-2.8,6.7c-0.5,1.1-1,1.9-1.5,2.4C95.7,36.2,95,36.5,93.9,36.5z M107.6,10.1l-6.1,14.6l-1.3-1.9h15l-1.3,1.9L107.6,10.1L107.6,10.1
		z"/>
	<path d="M139,36.5c-1,0-1.9-0.2-2.5-0.7c-0.7-0.5-1.2-1.2-1.6-2.1L122.8,6.8c-0.4-1-0.6-1.8-0.4-2.6c0.2-0.8,0.6-1.3,1.2-1.8
		c0.6-0.4,1.3-0.6,2.2-0.6c1.1,0,1.9,0.2,2.5,0.7s1.1,1.2,1.4,2.2l10.6,24.5H138l10.6-24.6c0.4-1,0.9-1.7,1.5-2.2
		c0.6-0.5,1.4-0.7,2.4-0.7c0.9,0,1.6,0.2,2.1,0.6c0.6,0.4,0.9,1,1.1,1.8c0.1,0.8,0,1.6-0.4,2.6l-12.1,26.9c-0.4,1-1,1.7-1.6,2.1
		C140.9,36.2,140.1,36.5,139,36.5z"/>
	<path d="M156.7,36.5c-0.9,0-1.6-0.2-2.2-0.6c-0.6-0.4-0.9-1-1.1-1.7c-0.1-0.7,0-1.5,0.4-2.4l12.3-26.9c0.5-1.1,1.1-1.9,1.8-2.4
		c0.7-0.5,1.5-0.7,2.4-0.7c0.9,0,1.7,0.2,2.4,0.7c0.7,0.5,1.3,1.3,1.8,2.4L187,31.8c0.4,0.9,0.6,1.7,0.5,2.4c-0.1,0.7-0.4,1.3-1,1.7
		c-0.5,0.4-1.2,0.6-2.1,0.6c-1.1,0-1.9-0.3-2.5-0.8c-0.6-0.5-1.1-1.3-1.6-2.4l-2.9-6.7l3,2.1h-20l3-2.1l-2.8,6.7
		c-0.5,1.1-1,1.9-1.5,2.4C158.5,36.2,157.7,36.5,156.7,36.5z M170.3,10.1l-6.1,14.6l-1.3-1.9h15l-1.3,1.9L170.3,10.1L170.3,10.1z"/>
	<path d="M194.4,36.5c-1.1,0-2-0.3-2.6-0.9c-0.6-0.6-0.9-1.5-0.9-2.7V5.5c0-1.2,0.3-2.1,0.9-2.8c0.6-0.6,1.4-1,2.4-1
		c0.9,0,1.5,0.2,2,0.5c0.5,0.3,1,0.9,1.6,1.7l16.8,21.5h-1.3V5.3c0-1.1,0.3-2,0.9-2.6c0.6-0.6,1.4-0.9,2.6-0.9s2,0.3,2.6,0.9
		c0.6,0.6,0.9,1.5,0.9,2.6V33c0,1.1-0.3,1.9-0.8,2.5c-0.5,0.6-1.3,0.9-2.2,0.9c-0.9,0-1.6-0.2-2.1-0.5c-0.5-0.4-1.1-0.9-1.7-1.7
		l-16.8-21.5h1.2v20.1c0,1.2-0.3,2-0.9,2.7S195.6,36.5,194.4,36.5z"/>
</g>
<g>
	<path d="M252.7,20.8c-3.9-1.1-6.7-2.5-8.4-4.1s-2.6-3.6-2.6-6c0-2.7,1.1-4.9,3.2-6.7s4.9-2.6,8.4-2.6c2.3,0,4.4,0.5,6.3,1.4
		s3.3,2.2,4.3,3.8s1.5,3.3,1.5,5.2h-4.5c0-2.1-0.7-3.7-2-4.9c-1.3-1.2-3.2-1.8-5.6-1.8c-2.2,0-3.9,0.5-5.2,1.5s-1.9,2.3-1.9,4.1
		c0,1.4,0.6,2.6,1.8,3.5c1.2,1,3.2,1.8,6,2.6c2.8,0.8,5.1,1.7,6.7,2.6s2.8,2.1,3.6,3.4s1.2,2.8,1.2,4.5c0,2.8-1.1,5-3.2,6.6
		s-5,2.5-8.6,2.5c-2.3,0-4.5-0.4-6.6-1.3s-3.6-2.1-4.7-3.7s-1.7-3.3-1.7-5.3h4.5c0,2.1,0.8,3.7,2.3,4.9s3.6,1.8,6.1,1.8
		c2.4,0,4.2-0.5,5.5-1.5s1.9-2.3,1.9-4s-0.6-3-1.8-3.9S255.7,21.7,252.7,20.8z"/>
	<path d="M276.7,4.5v6.1h4.7V14h-4.7v15.7c0,1,0.2,1.8,0.6,2.3c0.4,0.5,1.1,0.8,2.2,0.8c0.5,0,1.2-0.1,2.1-0.3V36
		c-1.1,0.3-2.2,0.5-3.3,0.5c-1.9,0-3.4-0.6-4.4-1.8s-1.5-2.8-1.5-5V14h-4.6v-3.4h4.6V4.5H276.7z"/>
	<path d="M300.8,33.5c-1.7,2-4.2,3-7.4,3c-2.7,0-4.8-0.8-6.2-2.4s-2.1-3.9-2.1-7V10.6h4.3V27c0,3.8,1.6,5.8,4.7,5.8
		c3.3,0,5.5-1.2,6.6-3.7V10.6h4.3V36h-4.1L300.8,33.5z"/>
	<path d="M309.5,23.1c0-3.9,0.9-7,2.8-9.4s4.3-3.6,7.2-3.6c3,0,5.3,1,7.1,3V0h4.3v36h-4l-0.2-2.7c-1.7,2.1-4.1,3.2-7.2,3.2
		c-2.9,0-5.3-1.2-7.2-3.6s-2.8-5.5-2.8-9.4V23.1z M313.8,23.6c0,2.9,0.6,5.1,1.8,6.8s2.8,2.4,4.9,2.4c2.8,0,4.8-1.2,6-3.7V17.4
		c-1.3-2.4-3.3-3.6-6-3.6c-2.1,0-3.8,0.8-5,2.5S313.8,20.4,313.8,23.6z"/>
	<path d="M336.4,3.9c0-0.7,0.2-1.3,0.6-1.8s1.1-0.7,1.9-0.7s1.5,0.2,1.9,0.7s0.7,1.1,0.7,1.8s-0.2,1.3-0.7,1.8s-1.1,0.7-1.9,0.7
		s-1.5-0.2-1.9-0.7S336.4,4.6,336.4,3.9z M341.1,36h-4.3V10.6h4.3V36z"/>
	<path d="M345.5,23.1c0-2.5,0.5-4.7,1.5-6.7s2.3-3.5,4.1-4.6s3.7-1.6,6-1.6c3.5,0,6.2,1.2,8.4,3.6s3.2,5.6,3.2,9.5v0.3
		c0,2.5-0.5,4.7-1.4,6.6s-2.3,3.5-4.1,4.6s-3.8,1.6-6.1,1.6c-3.4,0-6.2-1.2-8.4-3.6s-3.2-5.6-3.2-9.5V23.1z M349.9,23.6
		c0,2.8,0.7,5.1,2,6.8s3.1,2.6,5.2,2.6c2.2,0,4-0.9,5.2-2.6s1.9-4.1,1.9-7.3c0-2.8-0.7-5-2-6.8s-3.1-2.6-5.3-2.6
		c-2.1,0-3.9,0.9-5.2,2.6S349.9,20.4,349.9,23.6z"/>
	<path d="M387.5,29.3c0-1.2-0.4-2.1-1.3-2.7s-2.4-1.2-4.6-1.7s-3.9-1-5.2-1.7s-2.2-1.4-2.9-2.3s-0.9-2-0.9-3.2
		c0-2.1,0.9-3.8,2.6-5.3s4-2.2,6.7-2.2c2.9,0,5.2,0.7,7,2.2s2.7,3.4,2.7,5.7h-4.4c0-1.2-0.5-2.2-1.5-3.1s-2.3-1.3-3.8-1.3
		c-1.6,0-2.8,0.3-3.7,1s-1.3,1.6-1.3,2.7c0,1,0.4,1.8,1.2,2.4s2.3,1,4.5,1.5s3.9,1.1,5.3,1.7s2.3,1.5,3,2.4s1,2.1,1,3.5
		c0,2.3-0.9,4.1-2.7,5.4s-4.2,2.1-7.1,2.1c-2,0-3.8-0.4-5.4-1.1s-2.8-1.7-3.7-3s-1.3-2.7-1.3-4.2h4.3c0.1,1.5,0.7,2.6,1.7,3.5
		s2.5,1.3,4.3,1.3c1.6,0,3-0.3,3.9-1S387.5,30.4,387.5,29.3z"/>
</g>
</svg>
